<?xml version="1.0" encoding="UTF-8" standalone="no"?><!-- Generator: Gravit.io --><svg xmlns="http://www.w3.org/2000/svg" xmlns:xlink="http://www.w3.org/1999/xlink" style="isolation:isolate" viewBox="0 0 50 50" width="50pt" height="50pt"><defs><clipPath id="_clipPath_f2kNI6PAsbCzlD2wr5c447yQVeMjTmBW"><rect width="50" height="50"/></clipPath></defs><g clip-path="url(#_clipPath_f2kNI6PAsbCzlD2wr5c447yQVeMjTmBW)"><path d=" M 12.4 4 C 7.759 4 4 7.759 4 12.4 L 4 37.6 C 4 42.241 7.759 46 12.4 46 L 37.6 46 C 42.241 46 46 42.241 46 37.6 L 46 12.4 C 46 7.759 42.241 4 37.6 4 L 12.4 4 Z  M 12.4 8.2 L 37.6 8.2 C 40.101 8.2 41.8 9.899 41.8 12.4 L 41.8 37.6 C 41.8 40.101 40.101 41.8 37.6 41.8 L 12.4 41.8 C 9.899 41.8 8.2 40.101 8.2 37.6 L 8.2 12.4 C 8.2 9.899 9.899 8.2 12.4 8.2 Z  M 25 16.403 C 23.32 17.873 20.8 18.881 19.75 19.093 L 19.75 22.507 C 20.17 22.507 22.291 22.045 23.557 20.995 L 23.557 34.645 L 27.295 34.645 L 27.295 16.405 L 25 16.403 Z " fill="rgb(0,0,0)"/></g></svg>