<?xml version="1.0" encoding="UTF-8" standalone="no"?><!-- Generator: Gravit.io --><svg xmlns="http://www.w3.org/2000/svg" xmlns:xlink="http://www.w3.org/1999/xlink" style="isolation:isolate" viewBox="0 0 50 50" width="50pt" height="50pt"><defs><clipPath id="_clipPath_NckBAW1nh8PyNMVc8wP9OW9ucBHtNI2J"><rect width="50" height="50"/></clipPath></defs><g clip-path="url(#_clipPath_NckBAW1nh8PyNMVc8wP9OW9ucBHtNI2J)"><path d=" M 2 15 L 2 45 C 2 46.652 3.348 48 5 48 L 45 48 C 46.652 48 48 46.652 48 45 L 48 15 C 48 13.348 46.652 12 45 12 L 5 12 C 3.348 12 2 13.348 2 15 Z  M 44 39 L 40 42 L 36 39 L 40 36 L 44 39 Z  M 34 39 L 30 42 L 26 39 L 30 36 L 34 39 Z  M 24 39 L 20 42 L 16 39 L 20 36 L 24 39 Z  M 14 39 L 10 42 L 6 39 L 10 36 L 14 39 Z  M 39 30 L 35 33 L 31 30 L 35 27 L 39 30 Z  M 19 30 L 15 33 L 11 30 L 15 27 L 19 30 Z  M 44 21 L 40 24 L 36 21 L 40 18 L 44 21 Z  M 34 21 L 30 24 L 26 21 L 30 18 L 34 21 Z  M 24 21 L 20 24 L 16 21 L 20 18 L 24 21 Z  M 14 21 L 10 24 L 6 21 L 10 18 L 14 21 Z " fill="rgb(0,0,0)"/><text transform="matrix(1,0,0,1,4.263,8.482)" style="font-family:'Noto Sans';font-weight:700;font-size:7px;font-style:normal;fill:#000000;stroke:none;">CATEGORY!</text></g></svg>